<svg width="7909" height="4207" viewBox="0 0 7909 4207" fill="none" xmlns="http://www.w3.org/2000/svg">
<path d="M8 3767.5V1025.5V250H816.5L1188 1462.5L1614 1386L1952.5 173.5L2924.5 9.5L3449 3472.5L2378.5 4193.5L2160 1790L1952.5 3090L1188 3155.5L882 2260L696 3942L8 3767.5Z" fill="#625BB1" stroke="black" stroke-width="15"/>
<path d="M4677 1232C4677 1232 4776.29 612.412 5087.5 348C5633.35 -115.768 6901 73.8999 6901 73.8999C6901 73.8999 8053.1 283.637 7884.5 708.5C7767.65 1002.94 7152.5 1058 7152.5 1058L5814 1071.5C5814 1071.5 5605.15 1195.34 5623.5 1370C5639.25 1519.96 5661.81 1596.82 5789.5 1677C5985.18 1799.86 6136.32 1784.89 6366 1810C6697.38 1846.23 7064 1907 7192.5 1943C7321 1979 7487.7 2168.8 7522.5 2204C7557.3 2239.2 7655.5 2534 7655.5 2686.5C7655.5 2839 7636 3016.5 7522.5 3282C7408.59 3548.46 7263.76 3673.99 7021.5 3833C6786.82 3987.04 6642.83 4128 6366 4128H5481C5437.4 4128 4662 4149.5 4432.5 4018.5C4203 3887.5 4230 3765.54 4203 3571C4156.29 3234.53 4261.85 2733.86 4596 2795C4813.13 2834.73 4777.23 3109.09 4967.5 3221C5295.19 3413.73 5570.86 3268.4 5940 3177.5C6222.24 3108 6482.09 3192.35 6522.5 2904.5C6565.82 2595.95 6224.17 2566 5940 2489.5C5940 2489.5 5308.08 2468.58 5011.5 2238C4667.99 1970.93 4677 1232 4677 1232Z" fill="#625BB1"/>
<path d="M6966.5 64C6940.92 67.8661 6901 73.8999 6901 73.8999M5481 4128C5437.4 4128 4662 4149.5 4432.5 4018.5C4203 3887.5 4230 3765.54 4203 3571C4156.29 3234.53 4261.85 2733.86 4596 2795C4813.13 2834.73 4777.23 3109.09 4967.5 3221C5295.19 3413.73 5570.86 3268.4 5940 3177.5C6222.24 3108 6482.09 3192.35 6522.5 2904.5C6565.82 2595.95 6224.17 2566 5940 2489.5C5940 2489.5 5308.08 2468.58 5011.5 2238C4667.99 1970.93 4677 1232 4677 1232C4677 1232 4776.29 612.413 5087.5 348C5633.35 -115.768 6901 73.8999 6901 73.8999M5481 4128C5524.6 4128 6089.17 4128 6366 4128M5481 4128H6366M6366 4128C6642.83 4128 6786.82 3987.04 7021.5 3833C7263.76 3673.99 7408.59 3548.46 7522.5 3282C7636 3016.5 7655.5 2839 7655.5 2686.5C7655.5 2534 7557.3 2239.2 7522.5 2204C7487.7 2168.8 7321 1979 7192.5 1943C7064 1907 6697.38 1846.23 6366 1810C6136.32 1784.89 5985.18 1799.86 5789.5 1677C5661.81 1596.82 5639.25 1519.96 5623.5 1370C5605.15 1195.34 5814 1071.5 5814 1071.5L7152.5 1058C7152.5 1058 7767.65 1002.94 7884.5 708.5C8053.1 283.637 6901 73.8999 6901 73.8999" stroke="black" stroke-width="15"/>
</svg>
